# xmcd
#
# Track frame offsets:
#	150
#	18828
#	35231
#	52110
#	68352
#	82192
#	99484
#	116849
#	132921
#	147382
#	165342
#	183363
#	200722
#	220434
#	243332
#	259233
#	278539
#	295473
#	311102
#	330967
#
# Disc length: 4625 seconds
#
# Revision: 1
# Processed by: cddbd v1.5.1PL0 Copyright (c) Steve Scherf et al.
# Submitted via: MusicWizard 7.0.2
#
DISCID=32120f14
DTITLE=Various Artist - Touch My Soul Vol. 23 [CD 1/2)
DYEAR=2004
DGENRE=Soul
TTITLE0=Aaliyah - Miss You
TTITLE1=Alicia Keys - Girlfriend
TTITLE2=Busta Rhymes - Make It Clap
TTITLE3=Whitney Houston - Whatchulookinat
TTITLE4=DJ Tomekk Feat Lil'kim - Kimnotyze
TTITLE5=Ashanti - Foolish
TTITLE6=Toni Braxton - Hit The Freeway
TTITLE7=Tweet Feat Missy Elliott - Oops (Oh My)
TTITLE8=Usher - U-Turn
TTITLE9=Fat Joe - Crush Tonight
TTITLE10=K-Ci and Jojo - It's Me
TTITLE11=Nate Dogg - Get Up
TTITLE12=Donell Jones - Put Me Down
TTITLE13=Musiq - Dontchange
TTITLE14=India Arie - Little Things
TTITLE15=Joy Denalane - Was Auch Immer
TTITLE16=Christina Milian - When You Look At Me
TTITLE17=Lutricia Mcneal - Perfect Love
TTITLE18=D'angelo - Brown Sugar
TTITLE19=Destineys Child Feat. Wyclef Jean - No No No
EXTD=
EXTT0=
EXTT1=
EXTT2=
EXTT3=
EXTT4=
EXTT5=
EXTT6=
EXTT7=
EXTT8=
EXTT9=
EXTT10=
EXTT11=
EXTT12=
EXTT13=
EXTT14=
EXTT15=
EXTT16=
EXTT17=
EXTT18=
EXTT19=
PLAYORDER=
